<svg width="58" height="68" viewBox="0 0 58 68" fill="none" xmlns="http://www.w3.org/2000/svg">
<path d="M33.852 0.406006H11.532C5.43037 0.406006 0.469971 5.36691 0.469971 11.468V43.874C0.469971 49.9756 5.43087 54.94 11.532 54.94H13.1258V56.5338C13.1258 62.6354 18.0867 67.5958 24.1878 67.5958H35.3478C35.3986 67.5958 35.4415 67.5724 35.4923 67.5685C35.5431 67.5724 35.59 67.5958 35.6407 67.5958C47.7107 67.5958 57.5387 57.7716 57.5387 45.6978L57.5309 24.0928C57.5309 17.9912 52.57 13.0308 46.4689 13.0308H44.9103V11.4683C44.9142 5.36671 39.9501 0.406006 33.852 0.406006ZM13.122 24.094V50.25H11.5282C8.01257 50.25 5.15317 47.3867 5.15317 43.8711V11.4691C5.15317 7.95351 8.01257 5.09411 11.5282 5.09411H33.8482C37.3638 5.09411 40.2232 7.95351 40.2232 11.4691V13.0316H24.1842C18.0865 13.0316 13.122 17.9929 13.122 24.094ZM37.688 62.739V51.716C37.688 49.6926 39.3364 48.0441 41.3599 48.0441H52.6649C51.618 55.6769 45.54 61.72 37.688 62.739ZM46.4732 17.719C49.9888 17.719 52.8482 20.5784 52.8482 24.094V43.352H41.3602C36.7508 43.352 33.0008 47.102 33.0008 51.7114V62.9064H24.1844C20.6688 62.9064 17.8094 60.047 17.8094 56.5314V24.0934C17.8094 20.5778 20.6688 17.7184 24.1844 17.7184L46.4732 17.719Z" fill="black"/>
</svg>
